<?xml version="1.0" encoding="UTF-8" standalone="no"?>
<!DOCTYPE svg PUBLIC "-//W3C//DTD SVG 20010904//EN"
"http://www.w3.org/TR/2001/REC-SVG-20010904/DTD/svg10.dtd">
<!-- Created with Inkscape (http://www.inkscape.org/) -->
<svg
   id="svg1"
   sodipodi:version="0.32"
   inkscape:version="0.39"
   width="595.27559pt"
   height="841.88975pt"
   sodipodi:docbase="/home/u7/users/garvie/Satelite_images"
   sodipodi:docname="lake_inkscape_curve.svg"
   xmlns="http://www.w3.org/2000/svg"
   xmlns:cc="http://web.resource.org/cc/"
   xmlns:inkscape="http://www.inkscape.org/namespaces/inkscape"
   xmlns:sodipodi="http://sodipodi.sourceforge.net/DTD/sodipodi-0.dtd"
   xmlns:rdf="http://www.w3.org/1999/02/22-rdf-syntax-ns#"
   xmlns:dc="http://purl.org/dc/elements/1.1/"
   xmlns:xlink="http://www.w3.org/1999/xlink">
  <defs
     id="defs3" />
  <sodipodi:namedview
     id="base"
     pagecolor="#ffffff"
     bordercolor="#666666"
     borderopacity="1.0"
     inkscape:pageopacity="0.0"
     inkscape:pageshadow="2"
     inkscape:zoom="1.4142136"
     inkscape:cx="297.63778"
     inkscape:cy="455.10512"
     inkscape:window-width="1546"
     inkscape:window-height="1180"
     inkscape:window-x="0"
     inkscape:window-y="0"
     showguides="true"
     inkscape:guide-bbox="true"
     gridspacingy="14.173228pt"
     gridspacingx="14.173228pt"
     gridoriginy="0.0000000pt"
     gridoriginx="0.0000000pt"
     guidetolerance="5.0000000px" />
  <metadata
     id="metadata4">
    <rdf:RDF
       id="RDF5">
      <cc:Work
         rdf:about=""
         id="Work6">
        <dc:format
           id="format7">image/svg+xml</dc:format>
        <dc:type
           id="type9"
           rdf:resource="http://purl.org/dc/dcmitype/StillImage" />
      </cc:Work>
    </rdf:RDF>
  </metadata>
  <path
     style="fill:none;fill-opacity:0.75000000;fill-rule:evenodd;stroke:#000000;stroke-width:1.0000000pt;stroke-linecap:butt;stroke-linejoin:miter;stroke-opacity:1.0000000;"
     d="M 316.43027,404.47559 C 308.03548,398.91139 299.58444,398.74060 291.04946,400.70917 C 282.51448,402.67774 273.89556,406.78567 265.16504,409.77890 C 256.12811,412.14056 248.89965,407.14738 241.46794,402.40310 C 234.03624,397.65881 226.40131,393.16342 216.55145,396.52064 C 208.59209,401.66687 171.75432,409.39931 163.28492,411.37102 C 154.69460,406.78059 148.35195,399.34603 142.81752,391.16355 C 137.28310,382.98108 117.17854,353.11034 111.95404,346.70264 C 106.72953,340.29494 102.05949,333.68564 100.03538,325.72710 C 92.505038,316.86930 96.513578,309.15730 103.98723,302.51587 C 111.46089,295.87443 122.39966,290.30356 128.72978,285.72802 C 135.23519,279.61236 141.03767,272.47234 147.49111,266.23345 C 153.94455,259.99456 188.10867,246.12572 196.65261,242.24055 C 205.19655,238.35538 212.14405,232.69296 213.56835,221.67192 C 216.88707,213.32307 220.94836,204.95899 226.49969,198.09326 C 232.05102,191.22754 239.09239,185.86017 248.37126,183.50473 C 254.74329,179.11718 258.28512,172.03411 262.21952,165.39102 C 266.15393,158.74793 270.48093,152.54480 278.42330,149.91715 C 286.04445,142.86248 294.37201,142.26291 300.71846,145.82601 C 307.06492,149.38911 311.43026,157.11489 311.12698,166.71094 C 313.86701,174.67408 320.29256,179.58157 326.66315,184.58335 C 333.03374,189.58515 356.15768,217.10468 359.78574,225.48049 C 363.41380,233.85631 363.60636,243.05716 357.08892,252.88958 C 357.76511,263.31599 357.51443,274.54627 358.76685,285.34403 C 360.01926,296.14180 354.81980,295.01655 361.50834,303.71287 C 362.87639,305.46837 369.82778,313.34553 371.68926,314.92452 C 373.55073,316.50350 378.27726,323.27479 380.49890,324.58632 C 382.72054,325.89784 393.92779,327.93678 396.37634,328.88990 C 398.82490,329.84303 407.93158,328.58790 412.59116,327.25238 C 417.25073,325.91686 422.31525,319.69238 425.48394,315.28623 C 429.11606,308.44129 429.99491,307.35995 435.84305,302.44664 C 441.69119,297.53334 448.97310,294.97526 458.34025,297.55121 C 466.13878,296.44425 473.55912,293.57058 479.66439,288.99238 C 485.76966,284.41418 490.55987,278.13145 493.09812,270.20636 C 500.51326,263.01365 509.48217,263.01677 518.87309,264.56427 C 528.26401,266.11177 538.07695,269.20365 547.18014,268.18846 C 557.08076,265.79641 590.58667,243.42281 600.49708,240.62570 C 608.88450,235.80573 618.88327,235.06084 625.96183,238.40347 C 633.04039,241.74610 637.19873,249.17623 633.90530,260.70629 C 631.19641,269.24094 627.06632,278.10925 621.50451,285.88914 C 615.94269,293.66903 583.51153,315.15955 576.87224,322.14121 C 570.23295,329.12288 566.47499,337.62342 570.51915,348.85423 C 575.04236,359.34018 571.58669,368.85395 567.16400,378.24075 C 562.74131,387.62756 557.35159,396.88741 558.00668,406.86552 C 559.59983,416.43248 562.79571,426.03694 565.19008,435.75599 C 567.58445,445.47505 569.17730,455.30871 567.56437,465.33407 C 563.41150,474.69141 557.24442,482.88984 550.87626,490.96358 C 544.50811,499.03731 537.93889,506.98635 532.98174,515.84491 C 530.05165,523.93404 507.67325,547.76281 500.66817,551.89078 C 494.18457,556.73669 486.53042,559.53146 478.75120,562.17222 C 470.97199,564.81298 439.29587,580.84469 430.03371,583.94286 C 420.77154,587.04104 411.04621,588.69637 401.20454,587.69910 C 391.66506,584.47338 379.05091,580.57052 368.32214,581.10110 C 362.95776,581.36639 358.06472,582.74003 354.26303,585.86085 C 350.46133,588.98168 347.75099,593.84967 346.75200,601.10367 C 343.71143,611.03734 339.19214,620.77056 332.85137,628.74602 C 326.51061,636.72149 318.34837,642.93919 308.02188,645.84180 C 303.82862,644.78219 299.38518,645.50653 295.52344,647.18525 C 291.66169,648.86396 288.38165,648.84540 286.51519,651.60328 C 284.64873,654.36116 284.19586,659.89549 285.98846,662.07339 C 287.78106,664.25128 291.81913,665.72440 298.93455,665.66316 C 308.97882,671.20515 307.49149,677.85790 301.70226,682.79570 C 295.91303,687.73350 285.82190,690.95634 278.65857,689.63850 C 266.03892,693.81131 263.36224,703.11153 266.25737,712.11005 C 269.15250,721.10858 277.61944,729.80542 287.28701,732.77147 C 298.38425,731.39233 308.72930,733.06541 318.19548,736.85151 C 327.66165,740.63760 336.24895,746.53670 343.83067,753.60957 C 354.77964,754.30476 365.28049,755.83755 375.53164,758.35231 C 385.78279,760.86706 395.78424,764.36379 405.73444,768.98687 C 418.14608,778.49399 414.62479,783.10456 406.33873,785.59001 C 398.05266,788.07546 385.00182,788.43578 378.35436,789.44240 C 369.02549,797.97970 359.19094,798.29868 350.02151,795.02238 C 345.43679,793.38424 341.90223,791.28921 338.68030,788.87325 C 335.45837,786.45728 329.01352,789.02368 325.67930,786.10177 C 324.63807,792.78626 322.73726,793.69087 319.05995,798.04657 C 315.38264,802.40227 309.92883,803.13798 301.78158,795.34254 C 292.69334,790.41942 287.11348,781.67297 280.69272,773.86634 C 274.27196,766.05970 267.01030,759.19288 254.55844,758.02898 C 244.87788,753.79997 224.87284,719.24256 218.38337,711.41500 C 214.73445,701.50762 217.78698,691.92454 220.99086,682.17833 C 224.19474,672.43213 227.54996,662.52281 224.50640,651.96297 C 226.04857,642.48900 232.83341,636.77149 240.25971,631.36117 C 247.68601,625.95086 255.75377,620.84774 259.86174,612.60253 C 265.07908,603.26785 286.37882,566.06206 291.85381,556.70385 C 297.32754,547.58702 306.22049,542.43367 315.52139,537.56387 C 324.82229,532.69407 334.53113,528.10783 341.63663,520.12519 C 348.04806,511.08097 348.49280,468.82119 351.37130,458.75372 C 355.29716,448.54184 353.85514,439.21526 349.33183,431.31454 C 344.80853,423.41382 337.20394,416.93897 328.80465,412.43055 C 326.17907,411.74749 318.72275,405.29732 316.43027,404.47559 z "
     id="path1037"
     sodipodi:nodetypes="cscsccsscscsscscscscsscscsssscscscsccscsscscscsccsscsscscssscscscscscscsscscsccscsccsccscc" />
  <path
     style="fill:none;fill-opacity:0.75000000;fill-rule:evenodd;stroke:#000000;stroke-width:1.0000000pt;stroke-linecap:butt;stroke-linejoin:miter;stroke-opacity:1.0000000;"
     d="M 238.64853,266.58978 C 238.51530,269.28289 236.60859,285.12824 235.14026,287.95183 C 233.67194,290.77541 235.71197,302.66782 238.20736,303.46785 C 240.70275,304.26788 248.29200,305.44205 250.13902,303.71290 C 251.98604,301.98375 255.62753,298.75473 258.51675,297.46973 C 261.40598,296.18473 272.52609,293.18504 274.55300,291.27357 C 276.57991,289.36211 283.61571,283.10793 284.66230,280.72063 C 285.70890,278.33333 281.69621,268.96062 279.73288,267.83455 C 277.76955,266.70849 273.03317,257.41280 270.68478,255.55440 C 268.33639,253.69600 258.49908,249.60188 255.73801,249.16872 C 252.97695,248.73556 243.46055,254.72209 241.72690,256.73448 C 239.99325,258.74687 238.78176,263.89667 238.64853,266.58978 z "
     id="path1849"
     sodipodi:nodetypes="czzzzzzzzzzz" />
</svg>
